PathFileType	4	(x/y/z)	S10_PSF_T09
DataRate	CameraRate	NumFrames	NumMarkers	Units	OrigDataRate	OrigDataStartFrame	OrigNumFrames
240	240	8	51	mm	240	107	427
Frame#	Time	Sternum			R.Acromium			L.Acromium			Top.Head			R.ASIS			L.ASIS			R.PSIS			L.PSIS			R.Great.Tro			L.Great.Tro			R.Iliac.Crest			L.Iliac.Crest			V.Sacral			R.Thigh.Upper.Post			R.Thigh.Lower.Ant			R.Thigh.Lower.Post			R.Thigh.Upper.Ant			R.Knee.Lat			R.Knee.Med			R.Shank.Upper.Post			R.Shank.Lower.Ant			R.Shank.Lower.Post			R.Shank.Upper.Ant			R.Ankle.Lat			R.Ankle.Med			R.Heel.Upper			R.Heel.Med			R.Heel.Lat			R.Toe.Lat			R.Toe.Med			R.Toe.Tip			L.Thigh.Upper.Post			L.Thigh.Lower.Ant			L.Thigh.Lower.Post			L.Thigh.Upper.Ant			L.Knee.Lat			L.Knee.Med			L.Shank.Upper.Post			L.Shank.Lower.Ant			L.Shank.Lower.Post			L.Shank.Upper.Ant			L.Ankle.Lat			L.Ankle.Med			L.Heel.Upper			L.Heel.Med			L.Heel.Lat			L.Toe.Lat			L.Toe.Med			L.Toe.Tip			Cervical.Spine			Back			
		X1	Y1	Z1	X2	Y2	Z2	X3	Y3	Z3	X4	Y4	Z4	X5	Y5	Z5	X6	Y6	Z6	X7	Y7	Z7	X8	Y8	Z8	X9	Y9	Z9	X10	Y10	Z10	X11	Y11	Z11	X12	Y12	Z12	X13	Y13	Z13	X14	Y14	Z14	X15	Y15	Z15	X16	Y16	Z16	X17	Y17	Z17	X18	Y18	Z18	X19	Y19	Z19	X20	Y20	Z20	X21	Y21	Z21	X22	Y22	Z22	X23	Y23	Z23	X24	Y24	Z24	X25	Y25	Z25	X26	Y26	Z26	X27	Y27	Z27	X28	Y28	Z28	X29	Y29	Z29	X30	Y30	Z30	X31	Y31	Z31	X32	Y32	Z32	X33	Y33	Z33	X34	Y34	Z34	X35	Y35	Z35	X36	Y36	Z36	X37	Y37	Z37	X38	Y38	Z38	X39	Y39	Z39	X40	Y40	Z40	X41	Y41	Z41	X42	Y42	Z42	X43	Y43	Z43	X44	Y44	Z44	X45	Y45	Z45	X46	Y46	Z46	X47	Y47	Z47	X48	Y48	Z48	X49	Y49	Z49	X50	Y50	Z50	X51	Y51	Z51	

107	0.44167	-883.64	1262.4	305.75	-1026.3	1415.7	445.8	-975.2	1449.1	150.84	-1039.6	1734	326.48	-936.19	996.71	398.96	-929.45	1008.3	170.75	-1138.1	1009.8	308.92	-1130.8	1020.1	228.77	-1000.8	916.43	472.3	-998.62	948.72	109.72	-1038.2	1072.7	440.74	-999.07	1082.5	141.81	-1154.9	980.69	270.56	-916.89	718.32	476.1	-835.19	666.49	440.97	-889.27	633.28	470.14	-862.36	753.84	442.07	-838.63	519.33	430.97	-834.24	518.89	301.79	-818.66	288.28	436.43	-732.53	257.76	434.6	-787.17	220.49	434.03	-759.87	330.01	436.23	-719.15	124.45	425.19	-706.64	140.03	347.64	-746.86	55.911	370.91	-723.37	36.425	345.57	-737.76	34.878	405.75	-583.54	93.115	473.01	-547.52	115.25	370.79	-508.64	153.95	417.78	-1104.1	699.56	115.74	-1061.8	600.16	143.13	-1137.5	606.92	140.7	-1029.8	683.11	121.09	-1131.1	511.29	149.51	-1120.7	508.33	279.27	-1239.4	317.95	155.53	-1198.1	216.99	178.92	-1254	242.6	169.9	-1183.2	291.5	164.28	-1259.6	115.41	189.59	-1244.1	126.88	277.96	-1331.9	88.253	238.22	-1324.7	54.898	268.58	-1328.8	61.109	204.81	-1154.7	42.352	162.49	-1125.7	43.422	271.99	-1070.3	49.581	222.62	-1083.1	1480.8	293.23	-1165	1273.9	261.58
108	0.44583	-878.27	1260.9	306.36	-1020.9	1414.3	446.32	-969.62	1447.7	151.38	-1034.3	1732.7	326.96	-930.74	995.33	399.27	-924.03	1007.1	171.02	-1132.8	1008.5	309.35	-1125.5	1018.9	229.21	-995.39	915.08	472.72	-993.64	947.69	109.85	-1032.8	1071.3	441.16	-993.42	1081.2	142.29	-1149.4	979.39	270.99	-912.03	716.68	476.4	-830.64	664.51	441.09	-884.84	631.49	470.29	-857.39	751.98	442.35	-833.81	518.03	430.93	-831	516.93	301.55	-810.89	287.28	436.98	-724.4	257.84	434.5	-778.54	219.87	434.48	-752.66	329.8	436.16	-709.24	124.59	425.47	-697.46	140.14	347.78	-736.47	55.535	371.56	-712.8	36.194	346.17	-726.8	34.683	406.45	-572.83	95.128	472.55	-537.75	117.35	370.07	-499.02	156.82	416.71	-1100	699.35	115.89	-1058.4	599.52	143.12	-1134.1	606.6	141.02	-1026	682.36	121.11	-1128	510.94	149.64	-1117.3	507.79	279.37	-1237.5	318.32	155.6	-1197	217.02	178.94	-1252.7	243.05	169.92	-1181.6	291.41	164.35	-1259.2	115.84	189.57	-1243.6	127.24	277.99	-1331.7	88.889	238.16	-1324.6	55.514	268.56	-1328.7	61.66	204.77	-1154.7	42.312	162.45	-1125.7	43.417	271.95	-1070.2	49.386	222.58	-1077.7	1479.6	293.6	-1159.5	1272.7	261.97
109	0.45	-872.88	1259.4	306.97	-1015.5	1413	446.85	-964.02	1446.3	151.93	-1029	1731.5	327.45	-925.27	993.96	399.57	-918.62	1005.9	171.27	-1127.5	1007.2	309.8	-1120.2	1017.6	229.66	-989.89	913.76	473.14	-988.63	946.64	110.01	-1027.3	1069.9	441.59	-987.73	1080	142.78	-1143.8	978.09	271.43	-907.01	715.14	476.71	-825.93	662.65	441.19	-880.22	629.8	470.45	-852.3	750.24	442.59	-828.87	516.79	430.92	-827.7	515.02	301.38	-803.36	286.33	437.52	-716.58	257.84	434.34	-770.27	219.25	434.9	-745.64	329.53	436.06	-699.89	124.65	425.65	-688.8	140.18	347.83	-726.73	55.192	372.09	-702.93	35.971	346.63	-716.53	34.494	407.01	-562.76	96.842	471.99	-528.57	119.13	369.26	-489.96	159.27	415.57	-1095.9	699.07	116.09	-1054.9	598.87	143.14	-1130.6	606.25	141.34	-1022.2	681.6	121.15	-1124.9	510.56	149.81	-1113.7	507.21	279.5	-1235.6	318.7	155.68	-1195.8	217.06	178.97	-1251.3	243.52	169.93	-1179.9	291.32	164.44	-1258.8	116.29	189.53	-1243	127.61	278	-1331.5	89.576	238.08	-1324.4	56.179	268.52	-1328.5	62.247	204.72	-1154.6	42.272	162.4	-1125.6	43.419	271.91	-1070.1	49.192	222.52	-1072.2	1478.4	294	-1154	1271.5	262.39
110	0.45417	-867.46	1258	307.58	-1010.1	1411.6	447.41	-958.42	1444.9	152.48	-1023.7	1730.2	327.93	-919.79	992.6	399.87	-913.23	1004.6	171.52	-1122.2	1005.9	310.27	-1114.9	1016.4	230.12	-984.35	912.48	473.56	-983.6	945.59	110.18	-1021.9	1068.6	442.03	-982.03	1078.7	143.26	-1138.3	976.8	271.89	-901.82	713.71	477.02	-821.06	660.93	441.25	-875.39	628.23	470.62	-847.09	748.63	442.79	-823.8	515.63	430.94	-824.33	513.19	301.25	-796.08	285.43	438.04	-709.07	257.73	434.12	-762.35	218.64	435.29	-738.81	329.2	435.92	-691.08	124.64	425.74	-680.67	140.12	347.8	-717.66	54.873	372.51	-693.77	35.744	346.98	-706.98	34.299	407.45	-553.32	98.221	471.32	-520.01	120.55	368.35	-481.43	161.27	414.36	-1091.7	698.73	116.34	-1051.3	598.2	143.2	-1126.9	605.87	141.66	-1018.2	680.82	121.23	-1121.6	510.15	150.02	-1110	506.6	279.64	-1233.5	319.1	155.77	-1194.6	217.1	178.99	-1249.8	244.01	169.93	-1178.1	291.22	164.53	-1258.3	116.77	189.48	-1242.4	128	277.99	-1331.2	90.318	237.98	-1324.2	56.896	268.46	-1328.3	62.871	204.64	-1154.6	42.231	162.34	-1125.5	43.429	271.86	-1070	48.999	222.47	-1066.8	1477.3	294.42	-1148.5	1270.2	262.84
111	0.45833	-862.02	1256.5	308.18	-1004.7	1410.3	447.98	-952.81	1443.6	153.04	-1018.4	1729	328.43	-914.28	991.27	400.17	-907.83	1003.4	171.77	-1116.8	1004.7	310.75	-1109.6	1015.2	230.6	-978.76	911.25	473.98	-978.54	944.52	110.39	-1016.4	1067.3	442.48	-976.31	1077.4	143.75	-1132.8	975.52	272.37	-896.46	712.39	477.33	-816.02	659.36	441.28	-870.35	626.79	470.78	-841.74	747.15	442.95	-818.61	514.53	430.97	-820.85	511.44	301.18	-789.03	284.56	438.55	-701.86	257.52	433.84	-754.78	218.03	435.65	-732.16	328.79	435.73	-682.82	124.52	425.75	-673.07	139.94	347.7	-709.26	54.573	372.83	-685.32	35.505	347.21	-698.14	34.091	407.77	-544.51	99.237	470.55	-512.04	121.57	367.36	-473.43	162.79	413.09	-1087.5	698.32	116.65	-1047.5	597.5	143.28	-1123.1	605.47	141.98	-1014.2	680.03	121.34	-1118.2	509.71	150.26	-1106.2	505.96	279.82	-1231.4	319.5	155.87	-1193.3	217.14	179	-1248.3	244.53	169.93	-1176.2	291.12	164.65	-1257.8	117.28	189.41	-1241.8	128.41	277.94	-1331	91.119	237.85	-1324	57.67	268.38	-1328.1	63.537	204.55	-1154.5	42.187	162.28	-1125.5	43.447	271.8	-1069.9	48.808	222.41	-1061.3	1476.1	294.87	-1143	1269	263.32
112	0.4625	-856.55	1255	308.78	-999.22	1408.9	448.57	-947.19	1442.2	153.61	-1013.1	1727.8	328.93	-908.75	989.97	400.47	-902.44	1002.2	172.02	-1111.5	1003.5	311.25	-1104.3	1013.9	231.1	-973.13	910.06	474.41	-973.45	943.44	110.61	-1010.9	1066	442.95	-970.59	1076.1	144.24	-1127.3	974.27	272.87	-890.94	711.19	477.64	-810.81	657.94	441.27	-865.1	625.49	470.95	-836.28	745.81	443.07	-813.29	513.5	431.03	-817.25	509.79	301.15	-782.23	283.74	439.03	-694.96	257.2	433.51	-747.57	217.4	435.98	-725.69	328.32	435.51	-675.1	124.29	425.7	-666	139.65	347.54	-701.53	54.288	373.05	-677.61	35.246	347.35	-690.02	33.866	407.98	-536.32	99.865	469.69	-504.65	122.19	366.3	-465.94	163.79	411.76	-1083.2	697.84	117.02	-1043.6	596.78	143.4	-1119.1	605.04	142.29	-1010	679.21	121.49	-1114.7	509.23	150.54	-1102.3	505.29	280.03	-1229.2	319.92	155.98	-1191.9	217.2	179.02	-1246.6	245.07	169.92	-1174.3	291.02	164.77	-1257.3	117.83	189.32	-1241.1	128.84	277.87	-1330.7	91.985	237.69	-1323.9	58.503	268.28	-1327.9	64.247	204.44	-1154.5	42.141	162.22	-1125.4	43.475	271.73	-1069.7	48.619	222.35	-1055.7	1474.9	295.35	-1137.5	1267.9	263.82
113	0.46667	-851.05	1253.5	309.37	-993.73	1407.5	449.17	-941.56	1440.9	154.2	-1007.8	1726.6	329.44	-903.19	988.71	400.78	-897.03	1001	172.27	-1106.1	1002.3	311.76	-1098.9	1012.7	231.62	-967.44	908.92	474.83	-968.32	942.36	110.87	-1005.3	1064.7	443.42	-964.89	1074.9	144.71	-1121.8	973.03	273.39	-885.25	710.11	477.94	-805.44	656.67	441.22	-859.64	624.31	471.11	-830.69	744.6	443.14	-807.84	512.54	431.09	-813.48	508.24	301.17	-775.67	282.94	439.48	-688.36	256.76	433.13	-740.72	216.76	436.27	-719.4	327.77	435.25	-667.91	123.95	425.59	-659.43	139.23	347.33	-694.46	54.019	373.2	-670.62	34.966	347.4	-682.62	33.625	408.11	-528.74	100.09	468.76	-497.84	122.38	365.16	-458.95	164.25	410.39	-1078.9	697.29	117.45	-1039.6	596.04	143.57	-1114.9	604.6	142.59	-1005.8	678.38	121.67	-1111	508.72	150.85	-1098.2	504.59	280.27	-1226.8	320.35	156.1	-1190.4	217.27	179.03	-1244.9	245.64	169.91	-1172.2	290.92	164.91	-1256.8	118.41	189.22	-1240.4	129.29	277.76	-1330.5	92.919	237.51	-1323.7	59.399	268.16	-1327.7	65.005	204.3	-1154.4	42.092	162.15	-1125.3	43.511	271.65	-1069.6	48.432	222.28	-1050.2	1473.8	295.87	-1131.9	1266.7	264.34
114	0.47083	-845.53	1252.1	309.96	-988.22	1406.2	449.79	-935.92	1439.7	154.8	-1002.5	1725.5	329.95	-897.61	987.48	401.1	-891.61	999.75	172.52	-1100.7	1001.1	312.29	-1093.5	1011.5	232.15	-961.71	907.83	475.25	-963.15	941.26	111.16	-999.73	1063.5	443.9	-959.2	1073.7	145.18	-1116.2	971.83	273.93	-879.41	709.14	478.24	-799.91	655.56	441.13	-853.98	623.27	471.27	-824.98	743.54	443.17	-802.28	511.67	431.16	-809.54	506.8	301.22	-769.35	282.17	439.89	-682.04	256.2	432.71	-734.2	216.09	436.55	-713.28	327.15	434.96	-661.24	123.5	425.42	-653.37	138.68	347.07	-688.06	53.77	373.28	-664.34	34.665	347.38	-675.94	33.373	408.16	-521.76	99.91	467.75	-491.57	122.14	363.96	-452.42	164.15	408.97	-1074.6	696.67	117.94	-1035.4	595.27	143.77	-1110.5	604.15	142.87	-1001.4	677.53	121.9	-1107.2	508.18	151.21	-1094	503.86	280.55	-1224.4	320.8	156.22	-1188.9	217.34	179.05	-1243.2	246.23	169.88	-1170.1	290.83	165.06	-1256.2	119.03	189.09	-1239.7	129.78	277.63	-1330.2	93.925	237.3	-1323.4	60.362	268.02	-1327.5	65.815	204.15	-1154.4	42.039	162.07	-1125.2	43.557	271.57	-1069.5	48.248	222.21	-1044.6	1472.7	296.42	-1126.3	1265.6	264.89
